<?xml version="1.0" standalone="no" ?>
<!DOCTYPE svg PUBLIC "-//W3C//DTD SVG 20010904//EN"
  "http://www.w3.org/TR/2001/REC-SVG-20010904/DTD/svg10.dtd">
<svg
  version="1.0"
  xmlns="http://www.w3.org/2000/svg"
  width="1654.000000pt"
  height="534.000000pt"
  viewBox="0 0 1654.000000 534.000000"
  preserveAspectRatio="xMidYMid meet"
>

<g
    transform="translate(0.000000,534.000000) scale(0.100000,-0.100000)"
    fill="#000000"
    stroke="none"
  >
<path
      d="M2 2658 c1 -1465 5 -2555 8 -2423 5 223 6 237 18 190 48 -181 198
-339 379 -399 l78 -26 7773 0 7772 0 72 25 c102 36 154 69 233 149 72 74 123
159 147 252 12 43 14 24 18 -192 3 -131 7 959 8 2424 l2 2662 -8255 0 -8255 0
2 -2662z m443 2633 c-195 -56 -338 -189 -406 -380 l-28 -76 0 231 c-1 127 2
234 6 237 3 4 115 7 247 6 l241 0 -60 -18z m16052 -221 l2 -235 -23 67 c-68
196 -212 332 -411 389 l-60 18 245 -2 245 -2 2 -235z m-483 55 c156 -41 276
-168 306 -325 15 -78 14 -4232 -1 -4302 -31 -146 -146 -271 -288 -312 -50 -15
-751 -16 -7777 -16 -7483 0 -7724 1 -7782 18 -138 43 -251 168 -281 310 -15
71 -16 4224 -1 4303 28 150 153 283 302 323 46 13 1108 15 7758 15 6843 1
7712 -1 7764 -14z"
    />
<path
      d="M500 2655 l0 -1515 4295 0 4295 0 0 1515 0 1515 -4295 0 -4295 0 0
-1515z m4140 965 c223 -64 393 -228 445 -427 8 -31 15 -72 15 -90 l0 -33 -205
0 c-187 0 -206 2 -211 18 -48 152 -123 202 -302 202 -132 0 -226 -62 -286
-189 -30 -64 -31 -72 -34 -224 -4 -171 2 -216 46 -305 55 -112 161 -172 305
-172 94 0 167 27 225 83 35 33 72 95 72 120 0 17 -61 27 -161 27 l-69 0 0 140
0 140 325 0 325 0 0 -410 0 -410 -165 0 -165 0 0 65 c0 36 -3 65 -6 65 -3 0
-22 -13 -42 -30 -48 -38 -156 -86 -235 -105 -93 -22 -276 -20 -372 5 -209 54
-379 192 -460 374 -52 118 -69 209 -69 376 0 183 19 275 85 408 104 213 305
356 554 395 17 3 93 4 170 2 107 -2 158 -8 215 -25z m3895 -765 l0 -760 -177
-3 -178 -2 0 55 c0 30 -3 55 -6 55 -3 0 -26 -18 -52 -39 -87 -72 -123 -85
-253 -89 -140 -5 -198 9 -287 68 -83 55 -144 140 -178 243 -23 69 -28 105 -32
223 -3 121 -1 153 17 225 28 112 64 180 130 246 98 100 247 146 399 124 93
-14 144 -36 205 -90 l47 -43 0 276 0 276 183 -2 182 -3 0 -760z m-5442 345
c88 -13 177 -58 241 -123 102 -104 148 -236 148 -432 1 -273 -88 -452 -269
-538 -66 -31 -72 -32 -203 -32 -126 0 -138 2 -190 27 -30 15 -74 44 -97 64
l-43 37 0 -272 0 -271 -180 0 -180 0 0 760 0 760 178 -2 177 -3 3 -53 3 -53
47 39 c64 54 127 84 192 92 80 11 98 11 173 0z m3815 -16 c164 -37 270 -147
302 -314 6 -29 10 -214 10 -416 l0 -364 -180 0 -180 0 0 61 0 62 -46 -43 c-91
-83 -225 -118 -387 -100 -136 16 -234 78 -281 179 -17 38 -21 64 -21 156 1
127 15 166 84 228 96 87 177 108 441 116 l205 6 3 30 c5 55 -21 118 -58 143
-31 21 -44 23 -122 20 -75 -3 -90 -6 -112 -27 -14 -13 -29 -39 -32 -58 l-6
-33 -186 0 -185 0 6 52 c17 137 129 254 287 298 110 31 331 33 458 4z m-945 2
c67 -28 117 -111 117 -196 0 -47 -40 -130 -78 -162 -18 -15 -55 -32 -84 -38
-68 -16 -122 -2 -178 45 -37 31 -55 41 -62 33 -1 -2 -5 -176 -8 -388 l-5 -385
-182 -3 -183 -2 0 545 0 545 128 -1 c70 -1 152 -4 182 -7 54 -7 55 -8 60 -42
5 -34 6 -35 18 -12 8 13 34 37 60 53 39 25 56 29 114 29 38 0 83 -6 101 -14z
m-4531 -363 c4 -407 4 -408 81 -444 76 -34 170 -16 226 44 32 36 40 119 40
475 l1 282 183 -2 182 -3 0 -540 0 -540 -182 -3 -183 -2 0 61 0 61 -47 -43
c-27 -23 -77 -56 -113 -73 -60 -29 -73 -31 -170 -30 -84 0 -116 4 -161 22 -80
32 -142 90 -181 169 -32 65 -33 70 -39 247 -4 100 -8 292 -8 429 l-1 247 184
0 184 0 4 -357z"
    />
<path
      d="M7874 2891 c-80 -37 -113 -110 -114 -253 0 -116 16 -176 59 -219 78
-79 217 -78 292 1 44 46 59 100 59 215 0 115 -15 169 -59 215 -57 60 -157 77
-237 41z"
    />
<path
      d="M2818 2901 c-48 -16 -90 -53 -112 -100 -17 -39 -21 -65 -21 -166 1
-104 3 -125 22 -161 28 -53 74 -91 119 -100 62 -11 148 0 182 25 68 48 100
167 82 306 -12 93 -39 145 -92 175 -43 24 -136 35 -180 21z"
    />
<path
      d="M6588 2538 c-44 -12 -88 -59 -88 -94 0 -38 27 -82 60 -99 37 -19 149
-20 193 -1 47 19 84 67 96 126 18 85 25 80 -106 79 -65 -1 -135 -6 -155 -11z"
    />
<path
      d="M13437 3740 c-160 -40 -218 -194 -115 -306 136 -148 396 -25 348 165
-28 110 -123 168 -233 141z"
    />
<path
      d="M15470 3741 c-68 -14 -128 -57 -155 -111 -39 -76 -8 -178 67 -227 36
-24 51 -28 118 -28 67 0 82 4 118 28 59 38 85 94 80 168 -9 122 -107 195 -228
170z"
    />
<path
      d="M9308 3585 c-47 -26 -62 -84 -37 -139 12 -26 30 -35 124 -61 103 -29
130 -66 302 -411 l148 -298 4 -119 c4 -142 -6 -259 -23 -283 -9 -11 -34 -20
-76 -25 -82 -9 -105 -31 -105 -98 0 -38 5 -55 24 -75 l24 -26 313 0 c172 0
320 3 329 6 22 9 45 56 45 93 0 65 -36 101 -103 101 -51 0 -74 10 -86 36 -7
16 -11 94 -11 208 l0 183 68 134 c140 274 257 484 290 521 36 40 81 58 147 58
22 0 50 7 61 15 50 35 55 122 10 164 -24 23 -28 23 -302 23 l-278 0 -23 -27
c-23 -26 -31 -92 -17 -130 10 -25 58 -45 109 -45 25 0 45 -4 45 -10 0 -20
-204 -418 -212 -414 -5 3 -56 99 -113 215 -142 281 -207 351 -370 396 -80 22
-254 27 -287 8z"
    />
<path
      d="M12917 3201 l-139 -28 -66 19 c-97 27 -286 25 -378 -3 -160 -49 -262
-148 -299 -290 -29 -111 -6 -213 71 -313 l46 -59 -31 -24 c-40 -32 -77 -95
-91 -157 -14 -63 9 -158 48 -199 l27 -29 -25 -17 c-136 -89 -160 -286 -49
-406 51 -55 130 -92 249 -117 127 -27 364 -21 485 11 170 45 295 130 350 237
27 54 30 68 30 159 0 87 -3 106 -25 149 -30 59 -66 90 -147 128 -84 40 -195
56 -460 66 -155 6 -227 13 -238 22 -45 37 5 53 195 61 126 5 181 12 232 28
132 42 247 145 285 256 23 64 22 185 -1 239 -9 22 -14 41 -11 44 3 3 34 4 70
3 57 -2 67 0 90 23 14 14 25 21 25 15 0 -5 11 -21 25 -34 18 -19 35 -25 67
-25 77 0 73 19 76 -350 2 -221 -1 -336 -8 -350 -7 -14 -21 -20 -44 -20 -75 0
-116 -34 -116 -96 0 -32 25 -80 45 -88 9 -3 137 -6 285 -6 309 0 308 0 317 82
5 42 3 50 -25 78 -25 25 -39 30 -76 30 -35 0 -48 5 -56 19 -6 13 -10 177 -10
463 l0 443 -25 28 c-32 33 -77 36 -159 7 -31 -10 -96 -27 -144 -36 -48 -9 -97
-23 -109 -30 -30 -19 -30 -19 -37 16 -8 42 -48 80 -83 79 -15 -1 -90 -13 -166
-28z m-310 -193 c68 -41 103 -145 84 -250 -20 -116 -89 -175 -194 -166 -108 9
-157 79 -157 224 0 95 13 134 60 179 50 48 141 54 207 13z m157 -989 c62 -23
76 -40 76 -94 0 -117 -122 -182 -325 -173 -109 5 -184 30 -204 66 -6 12 -11
38 -11 59 0 31 7 46 31 69 26 24 30 35 27 68 l-4 39 178 -6 c144 -6 187 -11
232 -28z"
    />
<path
      d="M14135 3204 c-22 -8 -89 -26 -150 -39 -91 -20 -114 -29 -134 -51 -19
-23 -22 -35 -18 -73 6 -57 33 -81 91 -81 75 0 71 18 74 -350 2 -221 -1 -336
-8 -350 -7 -14 -21 -20 -44 -20 -18 0 -47 -5 -63 -10 -63 -22 -71 -123 -14
-167 12 -9 90 -12 289 -13 l273 0 24 25 c37 36 35 97 -4 136 -24 23 -38 29
-75 29 -35 0 -48 5 -56 19 -6 12 -10 130 -10 313 l0 294 38 36 c51 50 92 68
165 74 52 5 69 2 107 -18 79 -40 80 -47 80 -394 0 -229 -3 -304 -12 -311 -7
-6 -35 -13 -62 -16 -64 -6 -89 -31 -90 -90 -1 -35 5 -51 23 -71 l24 -26 277 0
c276 0 277 0 298 23 12 13 22 30 22 38 1 8 7 2 16 -13 8 -15 23 -32 34 -38 11
-6 123 -10 288 -10 l269 0 24 26 c18 19 24 37 24 70 0 59 -27 85 -94 92 -28 2
-55 10 -61 16 -6 8 -10 185 -12 463 l-3 451 -24 26 c-31 33 -78 34 -162 6 -34
-12 -104 -30 -156 -40 -52 -11 -98 -22 -103 -25 -4 -2 -15 -20 -24 -39 -33
-70 9 -136 88 -136 22 0 47 -4 54 -8 9 -7 12 -85 10 -358 l-3 -349 -30 -3
c-78 -6 -96 -13 -114 -43 l-18 -29 -11 25 c-13 29 -48 45 -96 45 -17 0 -37 5
-44 12 -9 9 -12 88 -12 293 0 154 -5 311 -10 349 -19 129 -93 230 -209 285
-51 24 -67 26 -181 26 -123 0 -126 -1 -201 -36 -42 -20 -79 -41 -83 -48 -12
-19 -26 -12 -26 13 0 14 -12 38 -26 55 -21 26 -33 31 -67 31 -23 -1 -60 -8
-82 -16z"
    />
<path
      d="M11225 3203 c-145 -34 -277 -121 -359 -236 -57 -80 -84 -142 -102
-235 -39 -205 17 -395 160 -538 91 -91 183 -138 315 -160 87 -15 101 -15 179
0 196 39 354 158 437 331 45 94 59 172 53 302 -5 91 -10 120 -36 181 -95 230
-295 364 -537 361 -49 -1 -99 -3 -110 -6z m223 -216 c82 -54 122 -171 122
-357 0 -272 -78 -409 -234 -410 -115 0 -180 58 -223 197 -28 92 -25 313 6 415
26 85 73 151 125 174 52 24 155 14 204 -19z"
    />
<path
      d="M14707 1792 c-38 -42 -8 -102 50 -102 55 0 85 67 45 103 -25 22 -75
21 -95 -1z"
    />
<path
      d="M14999 1787 c-44 -30 -60 -62 -57 -114 3 -41 2 -43 -24 -43 -26 0
-28 -3 -28 -45 0 -43 1 -45 30 -45 l30 0 0 -170 0 -170 50 0 50 0 0 170 0 170
65 0 65 0 0 45 0 45 -65 0 -65 0 0 34 c0 46 20 60 80 54 49 -5 50 -5 61 30 16
48 -4 62 -91 62 -53 0 -74 -5 -101 -23z"
    />
<path
      d="M9665 1771 c-128 -31 -178 -174 -92 -265 32 -33 54 -42 185 -76 51
-13 82 -41 82 -74 0 -90 -154 -101 -235 -16 l-28 29 -29 -36 c-16 -20 -27 -44
-26 -52 5 -26 92 -72 159 -83 155 -27 258 35 266 159 7 107 -44 158 -192 190
-84 18 -115 39 -115 76 0 30 11 44 43 56 45 17 90 13 143 -14 26 -13 51 -21
55 -17 3 4 15 20 27 36 l22 29 -31 23 c-51 37 -157 53 -234 35z"
    />
<path
      d="M13507 1492 c-53 -154 -97 -282 -97 -285 0 -4 24 -7 54 -7 l54 0 22
65 22 65 112 0 112 0 20 -62 20 -63 57 -3 c31 -2 57 1 57 5 0 4 -43 133 -96
286 l-97 277 -71 0 -72 0 -97 -278z m212 41 c17 -55 31 -104 31 -107 0 -3 -36
-6 -79 -6 l-80 0 35 103 c46 137 43 132 53 121 5 -5 23 -55 40 -111z"
    />
<path
      d="M11660 1721 c-33 -6 -35 -9 -38 -48 -3 -42 -4 -43 -38 -43 -34 0 -34
0 -34 -45 0 -45 0 -45 35 -45 l35 0 0 -136 0 -136 33 -33 c48 -48 140 -59 190
-22 15 10 16 16 5 45 -12 31 -14 32 -54 26 -63 -9 -74 13 -74 148 l0 108 60 0
60 0 0 45 0 45 -60 0 -60 0 0 50 c0 34 -4 50 -12 49 -7 -1 -29 -4 -48 -8z"
    />
<path
      d="M14420 1721 c-33 -6 -35 -9 -38 -48 -3 -42 -4 -43 -38 -43 -34 0 -34
0 -34 -45 0 -45 0 -45 34 -45 l34 0 4 -134 c3 -118 6 -138 24 -163 28 -37 87
-58 144 -49 70 10 76 17 60 65 -11 35 -15 39 -32 30 -10 -6 -31 -9 -46 -7 -41
5 -52 38 -50 153 l3 100 63 3 62 3 0 44 0 45 -65 0 -65 0 0 50 c0 34 -4 50
-12 49 -7 -1 -29 -4 -48 -8z"
    />
<path
      d="M10212 1620 c-18 -11 -35 -27 -38 -35 -10 -25 -24 -17 -24 15 0 29
-1 30 -50 30 l-50 0 0 -215 0 -215 50 0 50 0 1 128 c0 71 5 142 12 162 20 57
89 78 127 40 18 -18 20 -33 20 -175 l0 -155 49 0 49 0 4 138 c3 82 10 148 17
163 23 47 94 65 124 31 14 -16 17 -43 17 -175 l0 -157 56 0 56 0 -4 179 c-3
164 -5 182 -24 208 -48 64 -151 68 -212 7 -32 -32 -35 -33 -48 -17 -7 10 -14
22 -14 26 0 13 -67 37 -102 37 -18 0 -48 -9 -66 -20z"
    />
<path
      d="M10887 1627 c-20 -7 -53 -25 -72 -40 l-35 -28 22 -33 22 -34 37 25
c71 47 159 40 159 -12 0 -29 -17 -39 -95 -55 -74 -15 -107 -31 -135 -67 -29
-37 -24 -112 10 -148 52 -55 151 -57 201 -4 l27 29 16 -25 c17 -26 70 -41 111
-31 21 5 25 12 25 46 0 32 -4 40 -18 40 -36 0 -42 20 -42 146 0 117 -1 124
-26 153 -40 48 -125 63 -207 38z m133 -262 c0 -55 -33 -95 -78 -95 -55 0 -86
50 -55 89 14 17 84 45 126 50 4 1 7 -19 7 -44z"
    />
<path
      d="M11260 1415 l0 -215 50 0 50 0 0 108 c1 181 24 229 107 219 l42 -4
10 46 c11 51 4 61 -42 61 -36 0 -66 -16 -94 -49 l-22 -26 -1 38 0 37 -50 0
-50 0 0 -215z"
    />
<path
      d="M14020 1415 l0 -215 54 0 54 0 4 141 3 141 29 25 c24 21 37 24 72 20
l42 -4 7 43 c9 59 1 67 -53 61 -35 -4 -53 -12 -73 -35 -30 -34 -39 -32 -39 10
0 27 -2 28 -50 28 l-50 0 0 -215z"
    />
<path d="M14700 1415 l0 -215 55 0 55 0 0 215 0 215 -55 0 -55 0 0 -215z" />
<path
      d="M15200 1625 c0 -3 38 -104 86 -225 92 -237 92 -241 38 -276 -18 -12
-37 -15 -68 -11 -42 6 -44 5 -50 -25 -10 -51 -7 -57 29 -64 54 -10 121 4 155
33 41 34 56 66 156 326 47 122 88 228 91 235 4 9 -10 12 -50 12 l-54 0 -53
-150 c-28 -82 -55 -150 -59 -150 -3 0 -30 68 -60 150 l-54 150 -53 0 c-30 0
-54 -2 -54 -5z"
    />
</g>
</svg>
